<svg width="15" height="14" viewBox="0 0 15 14" fill="none" xmlns="http://www.w3.org/2000/svg">
  <path d="M7.1305 1.51735C7.27949 1.05881 7.9282 1.05881 8.07719 1.51735L9.05648 4.53131C9.12311 4.73638 9.31421 4.87522 9.52983 4.87522H12.6989C13.181 4.87522 13.3815 5.49218 12.9914 5.77557L10.4276 7.6383C10.2532 7.76504 10.1802 7.98969 10.2468 8.19475L11.2261 11.2087C11.3751 11.6673 10.8503 12.0486 10.4602 11.7652L7.89639 9.90243C7.72195 9.77569 7.48574 9.77569 7.3113 9.90243L4.74747 11.7652C4.35741 12.0486 3.8326 11.6673 3.98158 11.2087L4.96088 8.19475C5.02751 7.98969 4.95452 7.76504 4.78008 7.6383L2.21625 5.77557C1.82619 5.49218 2.02666 4.87522 2.50879 4.87522H5.67786C5.89348 4.87522 6.08457 4.73638 6.1512 4.53131L7.1305 1.51735Z" fill="red"/>
</svg>
